<?xml version="1.0" encoding="utf-8"?>
<!-- Generator: Adobe Illustrator 24.3.0, SVG Export Plug-In . SVG Version: 6.00 Build 0)  -->
<svg version="1.1" id="Ebene_1" xmlns="http://www.w3.org/2000/svg" xmlns:xlink="http://www.w3.org/1999/xlink" x="0px" y="0px"
	 viewBox="0 0 337.6 88.4" style="enable-background:new 0 0 337.6 88.4;" xml:space="preserve">
<style type="text/css">
	.st0{fill:#0EE077;}
	.st1{fill:#ffffff;}
	.st2{fill:#0EE077;stroke:#0EE077;stroke-width:2;stroke-miterlimit:10;}
	.st3{fill:#0EE077;}
</style>
<g id="Ebene_2_1_">
	<g id="Ebene_1-2">
		<g>
			<path class="st0" d="M299.9,37c-1.2,1.1-1.9,2.7-1.9,4.4c-0.1,1.6,0.5,3.2,1.6,4.4l21,22.1c1.1,1.2,2.7,1.9,4.3,1.8
				c3.4,0.1,6.3-2.6,6.4-6.1c0.1-1.6-0.5-3.2-1.6-4.4l-21-22.1c-1.1-1.2-2.7-1.9-4.3-1.8C302.7,35.2,301.1,35.8,299.9,37z"/>
			<path class="st0" d="M286.8,72c5.4,1.9,11.2,2.5,16.9,1.7c1.7-0.2,3.2-1,4.2-2.3c1.1-1.3,1.6-2.9,1.3-4.6
				c-0.1-1.6-0.9-3.1-2.2-4.1c-1.3-1-2.9-1.5-4.5-1.3c-3.8,0.5-7.7,0.1-11.3-1.2c-6.7-2.4-12-7.6-14.5-14.3c-1.1-3-1.6-6.2-1.5-9.3
				c0.1-3.2,0.9-6.4,2.2-9.3c2.7-6.1,7.8-10.9,14-13.4c3-1.2,6.2-1.7,9.4-1.7c3.2,0.1,6.3,0.7,9.2,2c6.6,2.8,11.5,8.3,13.5,15.2
				c1.1,3.7,1.3,7.6,0.6,11.3c-0.3,1.6,0,3.3,1,4.6c0.9,1.4,2.4,2.2,4,2.4c1.6,0.3,3.3-0.1,4.6-1.1c1.4-1,2.3-2.4,2.6-4.1
				c1.1-5.7,0.8-11.5-0.9-17c-1.6-5.5-4.5-10.5-8.4-14.6c-3.4-3.5-7.4-6.3-12-8.2c-4.4-1.9-9.1-2.9-13.9-3c-4.8,0-9.6,0.8-14.1,2.6
				c-9.4,3.6-17,10.8-21.1,20c-2,4.4-3.1,9.1-3.3,13.9c-0.2,4.8,0.6,9.5,2.2,14c1.7,4.6,4.3,8.8,7.6,12.4
				C276.6,67,281.5,70.1,286.8,72z"/>
		</g>
		<path class="st0" d="M332.7,12.2c-2.7,0-4.9-2.2-4.9-4.9s2.2-4.9,4.9-4.9c2.7,0,4.9,2.2,4.9,4.9C337.6,10,335.4,12.2,332.7,12.2
			L332.7,12.2z M332.7,3c-2.4,0-4.3,1.9-4.3,4.3c0,2.4,1.9,4.3,4.3,4.3c2.4,0,4.3-1.9,4.3-4.3C337,5,335.1,3.1,332.7,3L332.7,3z"/>
		
			<x  class="cls-1" d="M333.92,9.78a2,2,0,0,0-1.22-1.85l-.61-.27V9.77h-.61V5.19a.29.29,0,0,1,.3-.3h1.38a1.38,1.38,0,0,1,.24,2.73,2.6,2.6,0,0,1,1.13,2.15ZM332.09,7h1.07a.77.77,0,0,0,.76-.77.76.76,0,0,0-.76-.76h-1.07Z">
			</x>
		<g>
			<path class="st1" d="M30,60.4c2-0.1,3.6,1.5,3.7,3.5c0,0.1,0,0.1,0,0.2c0,1-0.4,2-1.2,2.7c-3.5,3.1-8.1,4.9-12.8,4.8
				c-5.2,0.1-10.3-2-13.9-5.8C2,62.2-0.1,57.1,0,51.9C-0.1,46.7,2,41.6,5.8,38c3.6-3.8,8.7-5.9,13.9-5.8c4.7-0.1,9.3,1.6,12.8,4.8
				c0.8,0.7,1.3,1.7,1.3,2.8c0,1-0.3,1.9-1,2.6c-0.7,0.7-1.6,1.1-2.6,1c-0.9,0-1.7-0.3-2.4-0.8c-1.1-1-2.4-1.7-3.8-2.3
				c-1.4-0.5-2.8-0.8-4.3-0.8c-1.7,0-3.3,0.3-4.8,1c-1.5,0.6-2.8,1.5-3.9,2.6c-1.1,1.1-2,2.4-2.6,3.9c-1.3,3.1-1.3,6.6,0,9.6
				c0.6,1.5,1.5,2.8,2.6,3.9c1.1,1.1,2.5,2,3.9,2.6c1.5,0.7,3.2,1,4.8,1c1.5,0,2.9-0.3,4.3-0.8c1.4-0.5,2.6-1.3,3.7-2.3
				C28.4,60.7,29.2,60.4,30,60.4z"/>
			<path class="st1" d="M46,67.9c0.1,2-1.5,3.8-3.5,3.9c-2,0.1-3.8-1.5-3.9-3.5c0-0.1,0-0.3,0-0.4V19c0-1,0.4-1.9,1.1-2.6
				c1.4-1.4,3.7-1.4,5.2,0C45.6,17.1,46,18,46,19v16.9c5.2-3.9,12-4.7,18-2.2c2.2,0.9,4.2,2.3,5.9,3.9c1.7,1.7,3.1,3.6,4,5.8
				c1,2.3,1.5,4.7,1.5,7.2v17.3c0,1-0.4,1.9-1.1,2.6c-1.4,1.4-3.7,1.4-5.2,0c-0.7-0.7-1.1-1.6-1.1-2.6V50.6c0-1.5-0.3-2.9-0.9-4.3
				c-1.1-2.6-3.2-4.7-5.9-5.9c-1.3-0.6-2.8-0.9-4.3-0.9c-1.5,0-2.9,0.3-4.3,0.9c-1.3,0.6-2.5,1.4-3.5,2.4c-1,1-1.8,2.2-2.4,3.5
				c-0.6,1.3-0.9,2.8-0.9,4.3V67.9z"/>
			<path class="st1" d="M112.1,67.9v-0.7c-1.7,1.4-3.7,2.5-5.7,3.2c-2.1,0.8-4.4,1.1-6.6,1.1c-10.9,0-19.7-8.8-19.7-19.7
				c0,0,0,0,0,0c0-10.9,8.9-19.7,19.7-19.7c5.2,0,10.2,2.1,13.9,5.8c3.8,3.6,5.8,8.7,5.8,13.9v16c0,2-1.6,3.7-3.6,3.7c0,0,0,0,0,0
				c-1,0-1.9-0.4-2.6-1.1C112.5,69.8,112.1,68.9,112.1,67.9z M99.7,39.5c-1.7,0-3.3,0.3-4.9,1c-1.5,0.6-2.8,1.5-3.9,2.6
				c-1.1,1.1-2,2.5-2.6,3.9c-1.3,3.1-1.3,6.5,0,9.6c0.6,1.5,1.5,2.8,2.6,3.9c1.1,1.1,2.4,2,3.9,2.7c1.5,0.7,3.2,1,4.9,1
				c1.7,0,3.3-0.3,4.8-1c1.5-0.6,2.8-1.5,3.9-2.7c1.1-1.1,2-2.5,2.6-3.9c1.3-3,1.3-6.5,0-9.5c-0.6-1.5-1.5-2.8-2.6-3.9
				c-1.1-1.1-2.5-2-3.9-2.7C103,39.9,101.4,39.5,99.7,39.5z"/>
			<path class="st1" d="M131.5,35.9v0.7c1.7-1.4,3.7-2.5,5.7-3.2c2.1-0.8,4.4-1.1,6.6-1.1c1.1,0,2.2,0.1,3.3,0.2
				c1.1,0.1,2.2,0.4,3.3,0.8c0.9,0.3,1.8,0.8,2.5,1.5c0.7,0.6,1,1.5,1,2.5c0,0.5-0.1,1-0.3,1.4c-0.2,0.4-0.5,0.8-0.8,1.2
				c-0.3,0.3-0.7,0.6-1.2,0.8c-0.5,0.2-0.9,0.3-1.4,0.3c-0.5,0-1.1-0.2-1.6-0.4c-1.5-0.6-3.2-0.9-4.8-0.9c-1.7,0-3.3,0.3-4.8,1
				c-1.5,0.6-2.8,1.5-3.9,2.6c-1.1,1.1-2,2.5-2.6,3.9c-0.7,1.5-1,3.2-1,4.8v16c0,2-1.6,3.7-3.6,3.7c0,0,0,0,0,0
				c-1,0-1.9-0.4-2.6-1.1c-0.7-0.7-1.1-1.6-1.1-2.6V35.9c0-1,0.4-1.9,1.1-2.6c0.7-0.7,1.6-1.1,2.6-1.1
				C129.8,32.2,131.4,33.8,131.5,35.9L131.5,35.9z"/>
			<path class="st1" d="M189.2,67.2c-7.8,6.3-19.1,5.7-26.2-1.4c-3.8-3.6-5.8-8.7-5.8-13.9c0-10.9,8.8-19.7,19.7-19.7
				s19.7,8.8,19.7,19.7v19.6c0,1.6-0.3,3.2-0.8,4.8c-0.5,1.5-1.2,2.9-2.1,4.1c-0.9,1.3-2,2.4-3.2,3.4c-1.2,1-2.6,1.9-4,2.6
				c-1.4,0.7-3,1.2-4.5,1.6c-1.5,0.4-3.1,0.6-4.7,0.6c-3.7,0-7.4-1-10.6-2.8c-1.6-1-3.1-2.1-4.4-3.5c-1.3-1.4-2.5-2.9-3.4-4.6
				c-0.4-0.6-0.6-1.3-0.6-2c0-1,0.4-1.9,1.1-2.6c0.7-0.7,1.7-1,2.6-1c0.6,0,1.2,0.1,1.7,0.5c0.7,0.6,1.4,1.4,1.9,2.2
				c0.6,0.9,1.3,1.8,2.1,2.6c5.3,5.3,13.9,5.4,19.3,0.1c1.4-1.6,2.3-3.6,2.4-5.7L189.2,67.2z M176.9,39.5c-1.7,0-3.3,0.3-4.9,1
				c-2.9,1.3-5.3,3.6-6.5,6.6c-1.3,3.1-1.3,6.5,0,9.6c1.2,3,3.6,5.3,6.5,6.6c3.1,1.3,6.6,1.3,9.7,0c1.5-0.6,2.8-1.5,3.9-2.7
				c1.1-1.1,2-2.5,2.6-3.9c1.3-3,1.3-6.5,0-9.5c-0.6-1.5-1.5-2.8-2.6-3.9c-1.1-1.1-2.5-2-3.9-2.7C180.2,39.9,178.6,39.5,176.9,39.5z
				"/>
			<path class="st1" d="M231.4,60.5c2,0,3.6,1.5,3.6,3.5c0,0.1,0,0.1,0,0.2c0,1-0.3,1.9-1,2.6c-8.2,7.1-20.7,6.2-27.8-2.1
				c-3.1-3.6-4.8-8.1-4.8-12.8c0-10.9,8.8-19.7,19.7-19.7c8,0.1,15.1,4.8,18.2,12.1c1,2.4,1.5,5,1.4,7.6c0,1-0.4,1.9-1.1,2.6
				c-0.7,0.7-1.6,1-2.6,1h-27.9c0.4,1.3,1,2.5,1.7,3.6c0.8,1.1,1.7,2,2.7,2.7c1,0.8,2.2,1.4,3.4,1.8c2.7,0.9,5.5,0.8,8.2-0.1
				c1.3-0.5,2.6-1.2,3.7-2.1C229.7,60.9,230.5,60.5,231.4,60.5z M233,48.2c-0.4-1.3-1-2.5-1.8-3.5c-0.8-1-1.7-1.9-2.8-2.7
				c-1-0.8-2.2-1.4-3.4-1.8c-2.5-0.8-5.3-0.8-7.8,0c-1.2,0.4-2.4,1-3.5,1.8c-1,0.7-2,1.7-2.7,2.7c-0.8,1.1-1.4,2.3-1.7,3.5H233z"/>
			<path class="st2" d="M258.5,66.9c0,2.6-2.1,4.7-4.7,4.7c-2.6,0-4.7-2.1-4.7-4.7v-61c0-1.2,0.5-2.4,1.4-3.3c1.8-1.8,4.8-1.8,6.6,0
				c0.9,0.9,1.4,2.1,1.4,3.3L258.5,66.9z"/>
		</g>
	</g>
</g>
<path class="st3" d="M333.8,9.5c0-0.8-0.5-1.5-1.2-1.8L332,7.4v2.1h-0.6V4.9c0-0.2,0.1-0.3,0.3-0.3h1.4c0.8,0,1.4,0.6,1.4,1.4
	c0,0.7-0.5,1.2-1.1,1.4c0.7,0.5,1.1,1.3,1.1,2.2H333.8z M332,6.8h1.1c0.4,0,0.8-0.3,0.8-0.8c0-0.4-0.3-0.8-0.8-0.8l0,0H332V6.8z"/>
</svg>
